<?xml version="1.0" encoding="utf-8"?>
<svg xmlns="http://www.w3.org/2000/svg" width="73" height="48" viewBox="0 0 73 48">
    <defs>
        <style>
            .cls-2{fill:#253b80}.cls-3{fill:#179bd7}
        </style>
    </defs>
    <g id="Group_2181" data-name="Group 2181" transform="translate(-187.193 -46.37)">
        <g id="Group_1747" data-name="Group 1747" transform="translate(187.193 46.37)">
            <rect id="Rectangle_2085" width="73" height="48" fill="#fff" data-name="Rectangle 2085" rx="6"/>
            <g id="Group_1739" data-name="Group 1739" transform="translate(5.856 15.462)">
                <path id="Path_5548" d="M166.616 219.836c-.269 1.764-1.617 1.764-2.92 1.764h-.742l.52-3.295a.41.41 0 0 1 .4-.346h.34c.888 0 1.725 0 2.158.506a1.639 1.639 0 0 1 .244 1.371zm-.567-4.6h-4.917a.683.683 0 0 0-.675.577l-1.989 12.608a.409.409 0 0 0 .405.473h2.347a.683.683 0 0 0 .675-.577l.536-3.4a.683.683 0 0 1 .674-.577h1.556c3.239 0 5.108-1.567 5.6-4.673a3.788 3.788 0 0 0-.627-3.174 4.561 4.561 0 0 0-3.585-1.262z" class="cls-2" data-name="Path 5548" transform="translate(-158.463 -215.23)"/>
                <path id="Path_5549" d="M221.669 241.52a2.624 2.624 0 0 1-2.657 2.248 1.824 1.824 0 0 1-1.95-2.289 2.636 2.636 0 0 1 2.638-2.266 1.987 1.987 0 0 1 1.57.641 2.038 2.038 0 0 1 .399 1.666zm3.282-4.582H222.6a.41.41 0 0 0-.4.346l-.1.659-.165-.239a3.351 3.351 0 0 0-2.781-.987 5.415 5.415 0 0 0-5.257 4.735 4.445 4.445 0 0 0 .877 3.617 3.684 3.684 0 0 0 2.965 1.2 4.505 4.505 0 0 0 3.259-1.348l-.105.654a.41.41 0 0 0 .4.474h2.121a.683.683 0 0 0 .675-.577l1.272-8.058a.408.408 0 0 0-.41-.476z" class="cls-2" data-name="Path 5549" transform="translate(-202.668 -232.389)"/>
                <path id="Path_5550" d="M287.88 237.816h-2.366a.686.686 0 0 0-.566.3l-3.263 4.807-1.385-4.623a.685.685 0 0 0-.656-.487h-2.325a.41.41 0 0 0-.389.542l2.606 7.648-2.45 3.459a.41.41 0 0 0 .334.647h2.363a.682.682 0 0 0 .561-.293l7.869-11.359a.41.41 0 0 0-.333-.641z" class="cls-2" data-name="Path 5550" transform="translate(-253.058 -233.267)"/>
                <path id="Path_5551" d="M340.768 219.836c-.268 1.764-1.616 1.764-2.92 1.764h-.741l.521-3.295a.408.408 0 0 1 .4-.346h.34c.887 0 1.725 0 2.158.506a1.64 1.64 0 0 1 .242 1.371zm-.567-4.6h-4.917a.683.683 0 0 0-.674.577l-1.989 12.608a.409.409 0 0 0 .4.473h2.523a.478.478 0 0 0 .472-.4l.564-3.574a.683.683 0 0 1 .674-.577h1.556c3.24 0 5.108-1.567 5.6-4.673a3.784 3.784 0 0 0-.628-3.174 4.557 4.557 0 0 0-3.582-1.265z" class="cls-3" data-name="Path 5551" transform="translate(-297.546 -215.23)"/>
                <path id="Path_5552" d="M395.83 241.52a2.623 2.623 0 0 1-2.656 2.248 1.824 1.824 0 0 1-1.95-2.289 2.637 2.637 0 0 1 2.638-2.266 1.987 1.987 0 0 1 1.57.641 2.027 2.027 0 0 1 .398 1.666zm3.282-4.582h-2.353a.408.408 0 0 0-.4.346l-.1.659-.165-.239a3.349 3.349 0 0 0-2.78-.987 5.414 5.414 0 0 0-5.256 4.735 4.446 4.446 0 0 0 .876 3.617 3.686 3.686 0 0 0 2.965 1.2 4.505 4.505 0 0 0 3.259-1.348l-.105.654a.41.41 0 0 0 .406.474h2.12a.683.683 0 0 0 .674-.577l1.273-8.058a.41.41 0 0 0-.414-.476z" class="cls-3" data-name="Path 5552" transform="translate(-341.761 -232.389)"/>
                <path id="Path_5553" d="M449.025 215.575l-2.018 12.839a.409.409 0 0 0 .4.473h2.029a.682.682 0 0 0 .675-.577l1.989-12.61a.41.41 0 0 0-.4-.474h-2.272a.411.411 0 0 0-.403.349z" class="cls-3" data-name="Path 5553" transform="translate(-388.897 -215.228)"/>
            </g>
        </g>
    </g>
</svg>