<?xml version="1.0" encoding="utf-8"?>
<svg xmlns="http://www.w3.org/2000/svg" width="73" height="48" viewBox="0 0 73 48">
    <defs>
        <style>
            .cls-2{fill:#0055a5}
        </style>
    </defs>
    <g id="Group_2183" data-name="Group 2183" transform="translate(-2.193 -46.37)">
        <g id="Group_1746" data-name="Group 1746" transform="translate(2.193 46.37)">
            <rect id="Rectangle_2085" width="73" height="48" fill="#fff" data-name="Rectangle 2085" rx="6"/>
            <g id="Group_1736" data-name="Group 1736" transform="translate(5.65 13.744)">
                <g id="Group_1735" data-name="Group 1735">
                    <path id="Path_5543" d="M58.352 71.97H53.2l3.219-19.783h5.151z" class="cls-2" data-name="Path 5543" transform="translate(-30.99 -51.833)"/>
                    <path id="Path_5544" d="M29.106 52.187L24.2 65.793l-.581-2.93-1.734-8.9a2.2 2.2 0 0 0-2.443-1.782h-8.12l-.095.334a19.241 19.241 0 0 1 5.387 2.262l4.475 17.193h5.366l8.194-19.783z" class="cls-2" data-name="Path 5544" transform="translate(-11.227 -51.833)"/>
                    <path id="Path_5545" d="M109.474 71.97h4.726l-4.12-19.783h-4.14a2.367 2.367 0 0 0-2.378 1.474L95.881 71.97h5.368l1.074-2.938h6.547zm-5.667-7l2.707-7.4 1.522 7.4z" class="cls-2" data-name="Path 5545" transform="translate(-51.084 -51.833)"/>
                    <path id="Path_5546" d="M83.6 56.629l.734-4.249a14.866 14.866 0 0 0-4.632-.863c-2.556 0-8.625 1.118-8.625 6.549 0 5.111 7.123 5.175 7.123 7.858s-6.389 2.2-8.5.511l-.766 4.441A14.426 14.426 0 0 0 74.746 72c3.514 0 8.817-1.821 8.817-6.773 0-5.144-7.188-5.622-7.188-7.858s5.016-1.954 7.225-.74z" class="cls-2" data-name="Path 5546" transform="translate(-38.396 -51.518)"/>
                </g>
                <path id="Path_5547" fill="#fc9220" d="M23.616 62.864l-1.734-8.9a2.2 2.2 0 0 0-2.443-1.782h-8.117l-.095.334a19.969 19.969 0 0 1 7.644 3.838 15.429 15.429 0 0 1 4.745 6.51z" data-name="Path 5547" transform="translate(-11.227 -51.833)"/>
            </g>
        </g>
    </g>
</svg>